<svg width="27" height="32" viewBox="0 0 27 32" fill="none" xmlns="http://www.w3.org/2000/svg">
<path d="M7.73518 21.1417C7.12718 23.1417 7.55918 25.9234 8.99803 27.2343V27.1863L9.04603 27.0583C9.22203 26.2114 9.91003 25.6834 10.79 25.7154C11.6049 25.7314 12.07 26.1634 12.1809 27.1063C12.2289 27.4583 12.2289 27.8103 12.2449 28.1783V28.2903C12.2449 29.0903 12.4689 29.8571 12.9169 30.5291C13.3169 31.1691 13.8769 31.664 14.6277 32L14.5957 31.936L14.5637 31.808C14.0037 30.1291 14.4037 28.9623 15.8746 27.9703L16.3226 27.6663L17.3146 27.0114C17.8843 26.6131 18.3618 26.0971 18.7149 25.4983C19.068 24.8995 19.2885 24.2319 19.3615 23.5406C19.4415 22.9326 19.3615 22.3406 19.1855 21.7657L18.9455 21.9257C16.7226 23.1086 14.1797 23.5257 11.7169 23.0457C10.23 22.8206 8.79118 22.4057 7.71918 21.1577L7.73518 21.1417Z" fill="#F5F5F5"/>
<path d="M0.762543 20.7897C0.762543 20.7897 5.03226 18.7097 9.31797 18.7097L12.5637 8.69943C12.6757 8.21943 13.0277 7.89943 13.4277 7.89943C13.8277 7.89943 14.1637 8.21943 14.2917 8.71543L17.5214 18.7109C22.6071 18.7109 26.078 20.7909 26.078 20.7909L18.8014 0.96C18.6094 0.368 18.2414 0 17.7774 0H9.07797C8.61397 0 8.27797 0.368 8.05397 0.96L0.762543 20.7897Z" fill="#F5F5F5"/>
</svg>
