<svg width="313" height="313" viewBox="0 0 313 313" fill="none" xmlns="http://www.w3.org/2000/svg">
<path d="M156.5 208.667C185.311 208.667 208.667 185.311 208.667 156.5C208.667 127.689 185.311 104.333 156.5 104.333C127.689 104.333 104.333 127.689 104.333 156.5C104.333 185.311 127.689 208.667 156.5 208.667Z" stroke="#FB7185" stroke-width="24" stroke-linecap="round" stroke-linejoin="round"/>
<path d="M286.917 117.375H286.786M26.2137 117.375H26.0833M156.565 286.917H156.435M98.5428 273.875C78.7795 264.269 61.77 249.815 49.0999 231.861C36.4298 213.907 28.5116 193.038 26.0833 171.198M214.457 273.875C234.221 264.269 251.23 249.815 263.9 231.861C276.57 213.907 284.488 193.038 286.917 171.198M72.4595 55.5185C95.7781 36.4873 124.953 26.0929 155.052 26.0929C185.151 26.0929 214.327 36.4873 237.645 55.5185" stroke="#FB7185" stroke-width="24" stroke-linecap="round" stroke-linejoin="round"/>
</svg>
