<svg width="106" height="36" viewBox="0 0 106 36" fill="none" xmlns="http://www.w3.org/2000/svg">
<path d="M0.984 35V1.4H6.552V29.912H21.768V35H0.984ZM39.5891 35L39.3011 30.584V11H44.6291V35H39.5891ZM22.9811 23.288V11H28.3571V23.288H22.9811ZM28.3571 23.288C28.3571 25.176 28.5811 26.648 29.0291 27.704C29.4771 28.76 30.0851 29.496 30.8531 29.912C31.6531 30.328 32.5651 30.536 33.5891 30.536C35.4131 30.568 36.8211 29.976 37.8131 28.76C38.8051 27.544 39.3011 25.8 39.3011 23.528H41.3171C41.3171 26.056 40.9331 28.232 40.1651 30.056C39.4291 31.848 38.3731 33.224 36.9971 34.184C35.6531 35.112 34.0211 35.576 32.1011 35.576C30.2131 35.576 28.5811 35.192 27.2051 34.424C25.8611 33.656 24.8211 32.456 24.0851 30.824C23.3491 29.192 22.9811 27.096 22.9811 24.536V23.288H28.3571ZM59.9149 35.576C57.4509 35.576 55.2749 35.048 53.3869 33.992C51.4989 32.904 50.0109 31.416 48.9229 29.528C47.8669 27.64 47.3389 25.464 47.3389 23C47.3389 20.536 47.8669 18.36 48.9229 16.472C50.0109 14.584 51.4829 13.112 53.3389 12.056C55.2269 10.968 57.3869 10.424 59.8189 10.424C62.1869 10.424 64.3309 11 66.2509 12.152C68.1709 13.272 69.5949 14.888 70.5229 17L65.5309 18.92C65.0189 17.864 64.2349 17.016 63.1789 16.376C62.1229 15.736 60.9229 15.416 59.5789 15.416C58.2669 15.416 57.0989 15.752 56.0749 16.424C55.0509 17.064 54.2509 17.96 53.6749 19.112C53.0989 20.232 52.8109 21.528 52.8109 23C52.8109 24.472 53.0989 25.784 53.6749 26.936C54.2829 28.056 55.0989 28.952 56.1229 29.624C57.1789 30.264 58.3629 30.584 59.6749 30.584C61.0189 30.584 62.2189 30.248 63.2749 29.576C64.3309 28.872 65.1149 27.928 65.6269 26.744L70.6189 28.664C69.6909 30.84 68.2669 32.536 66.3469 33.752C64.4589 34.968 62.3149 35.576 59.9149 35.576ZM73.2082 35V11H78.5362V35H73.2082ZM75.8962 6.44C75.0322 6.44 74.2802 6.136 73.6402 5.528C73.0322 4.888 72.7282 4.136 72.7282 3.272C72.7282 2.408 73.0322 1.672 73.6402 1.064C74.2802 0.455999 75.0322 0.151999 75.8962 0.151999C76.7602 0.151999 77.4962 0.455999 78.1042 1.064C78.7442 1.672 79.0642 2.408 79.0642 3.272C79.0642 4.136 78.7442 4.888 78.1042 5.528C77.4962 6.136 76.7602 6.44 75.8962 6.44ZM100.28 35L100.04 30.536V11H105.368V35H100.28ZM92.4563 35.576C90.2803 35.576 88.3762 35.064 86.7442 34.04C85.1442 32.984 83.8802 31.512 82.9522 29.624C82.0562 27.736 81.6082 25.528 81.6082 23C81.6082 20.44 82.0562 18.232 82.9522 16.376C83.8802 14.488 85.1442 13.032 86.7442 12.008C88.3762 10.952 90.2803 10.424 92.4563 10.424C94.4723 10.424 96.2003 10.952 97.6403 12.008C99.1123 13.032 100.232 14.488 101 16.376C101.768 18.232 102.152 20.44 102.152 23C102.152 25.528 101.768 27.736 101 29.624C100.232 31.512 99.1123 32.984 97.6403 34.04C96.2003 35.064 94.4723 35.576 92.4563 35.576ZM93.8003 30.68C95.0163 30.68 96.0883 30.36 97.0163 29.72C97.9763 29.048 98.7123 28.136 99.2243 26.984C99.7683 25.832 100.04 24.504 100.04 23C100.04 21.496 99.7683 20.168 99.2243 19.016C98.7123 17.864 97.9763 16.968 97.0163 16.328C96.0883 15.688 95.0002 15.368 93.7522 15.368C92.4722 15.368 91.3363 15.688 90.3442 16.328C89.3522 16.968 88.5682 17.864 87.9923 19.016C87.4483 20.168 87.1602 21.496 87.1282 23C87.1602 24.504 87.4483 25.832 87.9923 26.984C88.5682 28.136 89.3522 29.048 90.3442 29.72C91.3683 30.36 92.5203 30.68 93.8003 30.68Z" fill="#FB7185"/>
</svg>
