<svg width="33" height="32" viewBox="0 0 33 32" fill="none" xmlns="http://www.w3.org/2000/svg">
<g clip-path="url(#clip0_1955_86)">
<path d="M16.7623 31.9998C25.5989 31.9998 32.7623 24.8363 32.7623 15.9998C32.7623 7.16323 25.5989 -0.00021553 16.7623 -0.00021553C7.92577 -0.00021553 0.762329 7.16323 0.762329 15.9998C0.762329 24.8363 7.92577 31.9998 16.7623 31.9998Z" fill="#F5F5F5"/>
<path d="M27.341 28.0027L13.0535 9.59919H10.3617V22.3939H12.5152V12.3339L25.6502 29.3049C26.2422 28.909 26.807 28.4739 27.341 28.0027Z" fill="url(#paint0_linear_1955_86)"/>
<path d="M21.2071 9.59919H23.3403V22.3992H21.2071V9.59919Z" fill="url(#paint1_linear_1955_86)"/>
</g>
<defs>
<linearGradient id="paint0_linear_1955_86" x1="20.1395" y1="20.7103" x2="26.4506" y2="28.5325" gradientUnits="userSpaceOnUse">
<stop/>
<stop offset="1" stop-opacity="0"/>
</linearGradient>
<linearGradient id="paint1_linear_1955_86" x1="22.2736" y1="9.59918" x2="22.2379" y2="18.9992" gradientUnits="userSpaceOnUse">
<stop/>
<stop offset="1" stop-opacity="0"/>
</linearGradient>
<clipPath id="clip0_1955_86">
<rect width="32" height="32" fill="white" transform="translate(0.762543)"/>
</clipPath>
</defs>
</svg>
