<svg width="37" height="32" viewBox="0 0 37 32" fill="none" xmlns="http://www.w3.org/2000/svg">
<path d="M30.3625 10.3718C29.9794 10.2405 29.5931 10.1189 29.2039 10.007C29.2693 9.74004 29.3295 9.47633 29.3829 9.21726C30.26 4.96295 29.6866 1.53558 27.7281 0.407129C25.8503 -0.674679 22.7792 0.453351 19.6777 3.15043C19.372 3.4167 19.0732 3.69066 18.7813 3.97204C18.586 3.78494 18.3872 3.60147 18.185 3.42172C14.9345 0.537929 11.6763 -0.677489 9.71988 0.454194C7.84375 1.53937 7.28821 4.76134 8.07786 8.79325C8.15643 9.19257 8.24513 9.58983 8.34389 9.98464C7.8827 10.1156 7.43768 10.255 7.01178 10.4033C3.20075 11.731 0.766968 13.8116 0.766968 15.9697C0.766968 18.1987 3.37974 20.4343 7.34909 21.79C7.67091 21.8994 7.99539 22.0008 8.32224 22.0941C8.21612 22.5194 8.12188 22.9475 8.03962 23.378C7.28681 27.3399 7.87469 30.4857 9.74575 31.564C11.6783 32.6776 14.9218 31.5331 18.08 28.7745C18.3361 28.5502 18.5865 28.3196 18.8311 28.0829C19.1471 28.3875 19.4716 28.6834 19.8041 28.97C22.8635 31.6003 25.8848 32.6624 27.7541 31.5812C29.6848 30.4644 30.3123 27.0849 29.4976 22.9734C29.4334 22.6513 29.3615 22.3307 29.2818 22.0121C29.5096 21.9447 29.7331 21.8753 29.9511 21.803C34.0776 20.437 36.7625 18.2284 36.7625 15.9697C36.7625 13.8037 34.2502 11.7091 30.3625 10.3718ZM29.4675 20.3447C29.2705 20.4097 29.069 20.4727 28.8629 20.5337C28.4073 19.0926 27.7926 17.5604 27.0402 15.9772C27.7582 14.4317 28.3493 12.919 28.792 11.4874C29.1603 11.5939 29.5176 11.7061 29.8621 11.8246C33.1931 12.9704 35.2248 14.6644 35.2248 15.9697C35.2248 17.36 33.0305 19.165 29.4675 20.3447ZM27.9892 23.2718C28.3494 25.0898 28.4007 26.7336 28.1621 28.0187C27.9478 29.1734 27.5167 29.9432 26.9836 30.2515C25.8493 30.9077 23.4234 30.0549 20.8071 27.8053C20.4978 27.5388 20.196 27.2638 19.902 26.9805C20.9163 25.8722 21.93 24.5837 22.9193 23.1526C24.6594 22.9984 26.3034 22.746 27.7943 22.4017C27.8679 22.6979 27.9328 22.9879 27.9892 23.2718ZM13.0386 30.1382C11.9304 30.5292 11.0476 30.5404 10.514 30.233C9.37863 29.5787 8.90661 27.0528 9.55045 23.6646C9.62699 23.2642 9.71462 22.8661 9.81324 22.4705C11.2877 22.7965 12.9197 23.0308 14.6639 23.1722C15.66 24.5725 16.7029 25.8595 17.7539 26.9866C17.5305 27.2025 17.3019 27.413 17.0682 27.6177C15.6715 28.8375 14.2721 29.7029 13.0386 30.1382ZM7.84656 20.3361C6.09136 19.7367 4.64183 18.9576 3.6483 18.1075C2.75544 17.3436 2.30479 16.5851 2.30479 15.9697C2.30479 14.66 4.25882 12.9895 7.51796 11.8542C7.91349 11.7165 8.32744 11.5866 8.757 11.4646C9.20751 12.9286 9.79834 14.4593 10.5114 16.0071C9.78906 17.5778 9.18979 19.1329 8.73492 20.6142C8.43657 20.5288 8.14036 20.4361 7.84656 20.3361ZM9.58701 8.49807C8.91054 5.04373 9.35978 2.43798 10.4904 1.78398C11.6946 1.0874 14.3574 2.08056 17.1641 4.57068C17.3471 4.73342 17.5272 4.89947 17.7041 5.06874C16.6583 6.19087 15.625 7.46839 14.6378 8.86041C12.9449 9.0172 11.3244 9.26896 9.83448 9.60629C9.74266 9.23907 9.66015 8.86945 9.58701 8.49807ZM25.1139 12.3292C24.762 11.7219 24.397 11.1221 24.0193 10.5305C25.1677 10.6756 26.2681 10.8682 27.3015 11.1037C26.9913 12.0973 26.6046 13.1359 26.1495 14.2009C25.8168 13.5702 25.4715 12.9462 25.1139 12.3292ZM18.782 6.16698C19.4913 6.93479 20.2016 7.79194 20.9003 8.72202C19.483 8.65513 18.0633 8.65485 16.6459 8.72117C17.3453 7.79967 18.0617 6.94364 18.782 6.16698ZM12.4096 12.3396C12.0564 12.9516 11.7176 13.5717 11.3934 14.1995C10.9457 13.1383 10.5625 12.0949 10.2497 11.0872C11.2767 10.8577 12.3719 10.67 13.5131 10.5275C13.1311 11.1228 12.7632 11.7271 12.4096 12.3396ZM13.5458 21.5211C12.3668 21.3896 11.2552 21.2116 10.2285 20.9882C10.5462 19.9626 10.9378 18.8969 11.3952 17.813C11.7207 18.4412 12.0609 19.0617 12.4156 19.674C12.7803 20.3034 13.158 20.9199 13.5458 21.5211ZM18.8245 25.8806C18.0956 25.095 17.3687 24.2257 16.6587 23.2909C17.348 23.3179 18.0506 23.3316 18.7648 23.3316C19.4984 23.3316 20.2237 23.3152 20.9376 23.2834C20.2366 24.2351 19.529 25.1057 18.8245 25.8806ZM26.1639 17.7576C26.6451 18.8535 27.0506 19.9135 27.3726 20.9216C26.329 21.1596 25.2022 21.3512 24.0149 21.4935C24.3954 20.8909 24.7638 20.2808 25.1199 19.6635C25.4821 19.036 25.8302 18.4006 26.1639 17.7576ZM23.788 18.8958C23.2427 19.8422 22.6668 20.7706 22.0612 21.6797C20.9641 21.7574 19.8646 21.7959 18.7648 21.7953C17.6445 21.7953 16.555 21.7605 15.5057 21.6925C14.8843 20.7856 14.2974 19.8555 13.7463 18.9042C13.1978 17.958 12.6856 16.9913 12.2106 16.0062C12.6844 15.0209 13.1952 14.0538 13.7418 13.1069L13.7417 13.107C14.288 12.1598 14.8703 11.2337 15.487 10.3307C16.5575 10.2498 17.6552 10.2076 18.7646 10.2076C19.8791 10.2076 20.9783 10.2502 22.0485 10.3317C22.6591 11.2333 23.2376 12.1562 23.7829 13.0987C24.3313 14.0436 24.8488 15.006 25.3346 15.9845C24.8538 16.9729 24.3379 17.944 23.788 18.8958ZM26.9601 1.73803C28.1654 2.43264 28.6341 5.23368 27.8768 8.90691C27.8283 9.14144 27.7744 9.37981 27.7151 9.62203C26.2216 9.27753 24.6 9.02141 22.9021 8.86223C21.9131 7.4549 20.8882 6.17541 19.8594 5.06775C20.129 4.80806 20.4051 4.55509 20.6873 4.30908C23.3448 1.99837 25.8285 1.086 26.9601 1.73803ZM18.7648 12.758C20.5399 12.758 21.979 14.196 21.979 15.9697C21.979 17.7435 20.5399 19.1814 18.7648 19.1814C16.9896 19.1814 15.5505 17.7435 15.5505 15.9697C15.5505 14.196 16.9896 12.758 18.7648 12.758Z" fill="#F5F5F5"/>
</svg>
