<svg width="29" height="32" viewBox="0 0 29 32" fill="none" xmlns="http://www.w3.org/2000/svg">
<path d="M26.9964 24.6773C27.288 28.3747 27.288 30.108 27.288 32H18.6244C18.6244 31.588 18.6325 31.2107 18.6392 30.8293C18.6635 29.64 18.6879 28.4013 18.4921 25.8987C18.2356 22.236 16.637 21.4213 13.6992 21.4213H0.0793531V14.7547H14.115C17.8251 14.7547 19.6802 13.6413 19.6802 10.6893C19.6802 8.09467 17.8251 6.52267 14.115 6.52267H0.0780029V0H15.6596C24.0586 0 28.2331 3.91733 28.2331 10.176C28.2331 14.8573 25.2953 17.9093 21.3287 18.4187C24.6769 19.0813 26.6346 20.964 26.9964 24.6773ZM0.0780029 32V27.0307H9.23712C10.7668 27.0307 11.0989 28.1507 11.0989 28.82V32H0.0780029Z" fill="#F5F5F5"/>
</svg>
